<?xml version="1.0" standalone="no"?><!DOCTYPE svg PUBLIC "-//W3C//DTD SVG 1.1//EN" "http://www.w3.org/Graphics/SVG/1.1/DTD/svg11.dtd"><svg t="1728016482181" class="icon" viewBox="0 0 1024 1024" version="1.1" xmlns="http://www.w3.org/2000/svg" p-id="7282" xmlns:xlink="http://www.w3.org/1999/xlink" width="200" height="200"><path d="M312.916291 173.411515c9.8176-3.924379 19.152199-3.683902 27.991518 0.73678 24.551162 16.2061 41.73452 27.991518 51.564399 35.358299 10.796904 9.334599 11.786441 21.61632 2.946099 36.83186-8.356318 33.401738-13.258978 65.812915-14.732539 97.235578 0 7.366781 5.15644 10.80816 15.46932 10.31288 9.322319 0.494257 19.152199 3.441379 29.465079 8.839319 9.8176 4.419659 14.97404 10.56666 15.46932 18.416442-0.49528 7.861038-5.41022 14.491039-14.732539 19.888979-10.31288 4.419659-22.352077 8.356318-36.094056 11.786441-7.861038 2.946099-11.786441 8.356318-11.786441 16.205077-0.99056 15.7231-1.473561 31.928177-1.473561 48.617277 0 7.862062 4.903683 13.754259 14.732539 17.679661l16.942881 5.89322c6.871501 3.936659 12.027941 1.726318 15.46932-6.630001 4.903683-8.839319 10.55438-17.183358 16.942881-25.045419 9.322319-17.679661 13.743002-37.314861 13.258978-58.930157 5.39794-51.564399 0.978281-95.025237-13.258978-130.383536-9.829879-15.21554-7.124258-26.0237 8.102538-32.411177 14.732539-4.419659 31.91692 2.463098 51.563376 20.62576 11.787464 8.839319 15.953344 18.415418 12.523221 28.728298-1.968841 7.861038-2.946099 15.9646-2.946099 24.308639 0 7.861038 5.15644 10.31288 15.468296 7.365758 27.991518-7.849782 47.880497-10.060123 59.666938-6.630001 7.850805 2.946099 11.786441 0.494257 11.786441-7.366781-0.493234-23.076578 0-40.514739 1.472538-52.300156 1.474584-20.13048-1.966795-37.567617-10.310833-52.300156-6.883781-10.31288-5.41022-19.888979 4.418636-28.728298 5.892197-6.376221 15.711843-6.376221 29.466102 0 33.389458 14.732539 48.617277 32.664957 45.671179 53.773717-7.863085 20.62576-13.019525 43.714617-15.46932 69.244061-0.991584 7.861038 3.430122 8.356318 13.258978 1.472538 11.786441-7.365758 21.845541-15.71082 30.201859-25.045419 7.850805-7.849782 11.532661-14.97404 11.048637-21.361517 0-2.451842 0.979304-4.903683 2.948145-7.366781 13.258978-10.79588 27.497261-8.344039 42.723034 7.366781 11.292184 10.80816 19.394722 21.12104 24.309662 30.93864 5.894244 14.248516 2.451842 24.308639-10.31288 30.201859-8.356318 1.967818-16.942881 4.419659-25.7822 7.366781-21.615297 9.334599-48.374754 19.404955-80.291674 30.201859-7.861038 3.441379-11.543917 10.070356-11.050684 19.888979 1.474584 28.486798 4.663206 48.618301 9.577123 60.403718 4.90266 4.419659 14.477736 7.619538 28.728298 9.576099 24.055882 3.441379 45.912679 2.704598 65.559135-2.210341 6.375198-1.956561 10.796904-5.39794 13.258978-10.31288 7.850805-19.152199 13.258978-38.788421 16.207124-58.930157 0.977257-7.849782 3.187599-14.478759 6.630001-19.888979 2.946099-5.39794 8.344039-7.366781 16.205077-5.89322 7.850805 3.936659 12.523221 10.565636 13.996782 19.888979 4.418636 36.83186 10.31288 66.296939 17.677615 88.395236 7.366781 19.647479 0.2415 34.621519-21.361517 44.934398-21.120017 7.365758-47.143717 9.334599-78.083379 5.89322-30.93864-1.956561-60.402695-7.113001-88.396259-15.46932-4.91494-1.956561-9.828856-4.419659-14.731516-7.365758-13.258978-5.89322-21.120017-13.995759-23.571858-24.308639-7.861038-21.10876-12.281721-51.069119-13.258978-89.868797 0-7.366781-4.418636-9.576099-13.258978-6.630001-21.615297 6.388501-43.220361 11.04966-64.824401 13.995759-7.365758 0.49528-11.04966 5.15644-11.04966 13.995759l-2.947122 43.460838c0 7.862062 4.903683 9.829879 14.732539 5.89322 14.732539-5.89322 29.465079-11.533684 44.197618-16.942881 4.903683-1.956561 9.818623-0.978281 14.732539 2.946099 8.344039 11.786441 3.683902 23.571858-13.996782 35.358299-43.714617 33.884738-75.136258 61.393255-94.288456 82.503039-8.839319 12.280698-17.932418 15.722076-27.254737 10.31288-1.967818-1.472538-2.946099-1.219781-2.946099 0.73678-7.862062 24.067138-20.878516 27.255761-39.041178 9.576099-4.419659-3.925403-9.093099-8.345062-13.995759-13.260002-7.861038-6.871501-11.786441-6.376221-11.786441 1.473561-1.473561 79.071893-2.210341 148.315954-2.210341 207.729112 0.483001 22.582321-5.41022 42.2298-17.678638 58.930157-11.786441 15.216563-24.067138 16.447601-36.83186 3.683902-13.260002-21.12104-20.62576-45.187155-22.099321-72.190159-0.494257-15.21554 0.978281-26.517957 4.419659-33.884738 5.39794-19.152199 9.081843-33.884738 11.04966-44.196595 3.430122-29.949103 6.134721-70.959122 8.102538-123.017778 0-8.345062-2.704598-8.103562-8.102538 0.73678-35.358299 58.930157-77.346599 109.757776-125.963876 152.482857-5.409197 4.91494-12.775978 5.650697-22.098297 2.209318-10.31288-6.871501-10.31288-16.446577 0-28.728298 59.908438-81.029478 105.579617-158.375054 137.013537-232.03775 3.430122-8.345062 0.2415-11.291161-9.576099-8.839319l-28.728298 8.102538c-20.62576 4.91494-41.745776 2.704598-63.349817-6.630001-13.754259-6.376221-18.669198-14.97404-14.732539-25.7822 4.903683-6.871501 12.027941-11.048637 21.361517-12.522198 33.884738-4.903683 69.244061-13.260002 106.074897-25.045419 8.344039-2.946099 12.522198-8.102538 12.522198-15.46932 0.483001-33.389458 0.2415-66.538439-0.73678-99.444896-1.967818-17.184381-8.839319-34.367739-20.62576-51.564399-2.463098-4.903683-4.178159-10.79588-5.15644-17.678638C298.920532 186.428993 303.581692 179.798992 312.916291 173.411515zM566.316581 479.848743c16.690124-2.946099 36.33658 1.727341 58.931181 13.995759 19.151176 11.302417 19.635199 25.299199 1.472538 41.9883-3.937682 2.946099-8.102538 6.630001-12.523221 11.04966l-16.205077 16.942881c-7.861038 7.861038-6.883781 10.80816 2.946099 8.839319 27.497261-6.375198 51.806923-14.478759 72.92694-24.308639 9.8176-2.451842 17.184381-1.956561 22.099321 1.473561 18.161638 8.355295 32.895201 16.941857 44.197618 25.781176 20.13048 11.786441 24.055882 25.781176 11.786441 41.987277-4.91494 9.828856-8.102538 24.803919-9.575076 44.934398-0.49528 29.465079 0 53.036937 1.472538 70.716598 1.472538 23.076578-0.991584 47.143717-7.366781 72.189136-3.441379 16.2061-12.281721 30.443359-26.517957 42.72508-11.786441 7.365758-21.615297 6.375198-29.466102-2.947122l-25.7822-45.671179c-4.91494-7.861038-12.521175-11.543917-22.834055-11.04966-31.928177 0.978281-59.183937 3.188622-81.766258 6.630001-6.882757 0.484024-11.302417 5.15644-13.258978 13.996782-5.89322 19.635199-16.700357 24.055882-32.412201 13.258978-10.31288-8.839319-17.195637-19.152199-20.62576-30.937616-3.936659-13.260002-5.409197-28.982078-4.419659-47.14474 2.946099-34.367739 0.978281-71.452355-5.89322-111.230314-1.473561-9.818623-6.388501-24.550139-14.732539-44.197618-1.473561-4.90266 0.483001-9.575076 5.89322-13.995759 9.322319-8.345062 24.055882-5.15644 44.197618 9.575076 3.431146 1.968841 7.113001 2.947122 11.04966 2.947122 3.925403 0 8.102538-4.662183 12.523221-13.995759 16.689101-34.368762 24.549116-58.4359 23.571858-72.190159C552.563346 494.339782 556.004725 487.215524 566.316581 479.848743zM667.972842 606.5494c-38.306444 6.883781-78.083379 14.732539-119.334899 23.571858-7.861038 1.473561-12.040221 7.125281-12.522198 16.942881 0 2.947122-0.252757 6.147-0.73678 9.576099 0 7.862062 4.90266 10.07138 14.731516 6.630001 18.163685-5.39794 36.579103-9.575076 55.248302-12.522198 13.743002-1.472538 23.076578-0.978281 27.991518 1.472538 7.366781 1.473561 14.731516 5.89322 22.099321 13.260002 4.418636 5.409197 6.630001 9.828856 6.630001 13.258978 0.484024 6.883781-1.968841 11.786441-7.366781 14.732539-5.892197 3.936659-15.721053 6.387477-29.464055 7.365758-25.540699 3.441379-51.322899 7.124258-77.346599 11.04966-7.862062 0.989537-11.786441 6.387477-11.786441 16.2061l0 11.04966c0.483001 7.861038 5.63944 11.04966 15.468296 9.575076 23.078625-3.924379 46.408983-8.344039 69.980841-13.258978 12.269441-2.947122 24.551162-0.73678 36.830837 6.630001 9.8176 6.871501 15.21554 5.39794 16.207124-4.419659 4.418636-43.702338 6.133697-82.743516 5.15644-117.123534C678.767699 611.705839 674.844344 607.04468 667.972842 606.5494z" p-id="7283"></path></svg>